<svg width="52" height="11" viewBox="0 0 52 11" fill="none" xmlns="http://www.w3.org/2000/svg">
<path d="M4.25284 1.27273H6.0767V7.35795C6.0767 7.92045 5.95028 8.40909 5.69744 8.82386C5.44744 9.23864 5.09943 9.55824 4.65341 9.78267C4.20739 10.0071 3.68892 10.1193 3.09801 10.1193C2.57244 10.1193 2.09517 10.027 1.66619 9.84233C1.24006 9.65483 0.901989 9.37074 0.651989 8.99006C0.401989 8.60653 0.278409 8.125 0.28125 7.54545H2.1179C2.12358 7.77557 2.17045 7.97301 2.25852 8.13778C2.34943 8.29972 2.47301 8.42472 2.62926 8.51278C2.78835 8.59801 2.97585 8.64062 3.19176 8.64062C3.41903 8.64062 3.6108 8.59233 3.76705 8.49574C3.92614 8.39631 4.04688 8.25142 4.12926 8.06108C4.21165 7.87074 4.25284 7.63636 4.25284 7.35795V1.27273ZM11.7656 7.21307V3.45455H13.581V10H11.8381V8.81108H11.7699C11.6222 9.1946 11.3764 9.50284 11.0327 9.7358C10.6918 9.96875 10.2756 10.0852 9.78409 10.0852C9.34659 10.0852 8.96165 9.9858 8.62926 9.78693C8.29688 9.58807 8.03693 9.3054 7.84943 8.93892C7.66477 8.57244 7.57102 8.13352 7.56818 7.62216V3.45455H9.38352V7.2983C9.38636 7.68466 9.49006 7.99006 9.6946 8.21449C9.89915 8.43892 10.1733 8.55114 10.517 8.55114C10.7358 8.55114 10.9403 8.50142 11.1307 8.40199C11.321 8.29972 11.4744 8.14915 11.5909 7.95028C11.7102 7.75142 11.7685 7.50568 11.7656 7.21307ZM18.5529 3.45455V4.81818H14.5131V3.45455H18.5529ZM15.4379 10V2.98153C15.4379 2.5071 15.5302 2.11364 15.7148 1.80114C15.9023 1.48864 16.158 1.25426 16.4819 1.09801C16.8058 0.941761 17.1737 0.863636 17.5856 0.863636C17.864 0.863636 18.1183 0.884943 18.3484 0.927557C18.5813 0.97017 18.7546 1.00852 18.8683 1.04261L18.5444 2.40625C18.4734 2.38352 18.3853 2.36222 18.2802 2.34233C18.1779 2.32244 18.0728 2.3125 17.9648 2.3125C17.6978 2.3125 17.5117 2.375 17.4066 2.5C17.3015 2.62216 17.2489 2.79403 17.2489 3.01562V10H15.4379ZM23.1818 3.45455V4.81818H19.142V3.45455H23.1818ZM20.0668 10V2.98153C20.0668 2.5071 20.1591 2.11364 20.3438 1.80114C20.5312 1.48864 20.7869 1.25426 21.1108 1.09801C21.4347 0.941761 21.8026 0.863636 22.2145 0.863636C22.4929 0.863636 22.7472 0.884943 22.9773 0.927557C23.2102 0.97017 23.3835 1.00852 23.4972 1.04261L23.1733 2.40625C23.1023 2.38352 23.0142 2.36222 22.9091 2.34233C22.8068 2.32244 22.7017 2.3125 22.5938 2.3125C22.3267 2.3125 22.1406 2.375 22.0355 2.5C21.9304 2.62216 21.8778 2.79403 21.8778 3.01562V10H20.0668ZM27.0394 10.1278C26.3661 10.1278 25.7866 9.99148 25.3008 9.71875C24.8178 9.44318 24.4457 9.05398 24.1843 8.55114C23.9229 8.04545 23.7923 7.44744 23.7923 6.7571C23.7923 6.08381 23.9229 5.4929 24.1843 4.98438C24.4457 4.47585 24.8136 4.07955 25.288 3.79545C25.7653 3.51136 26.3249 3.36932 26.967 3.36932C27.3988 3.36932 27.8008 3.43892 28.1729 3.57812C28.5479 3.71449 28.8746 3.92045 29.1531 4.19602C29.4343 4.47159 29.6531 4.81818 29.8093 5.2358C29.9656 5.65057 30.0437 6.13636 30.0437 6.69318V7.19176H24.5167V6.06676H28.3349C28.3349 5.8054 28.2781 5.57386 28.1644 5.37216C28.0508 5.17045 27.8931 5.01278 27.6914 4.89915C27.4925 4.78267 27.261 4.72443 26.9968 4.72443C26.7212 4.72443 26.4769 4.78835 26.2638 4.91619C26.0536 5.04119 25.8888 5.21023 25.7695 5.4233C25.6502 5.63352 25.5891 5.8679 25.5863 6.12642V7.19602C25.5863 7.51989 25.646 7.79972 25.7653 8.03551C25.8874 8.27131 26.0593 8.45312 26.2809 8.58097C26.5025 8.70881 26.7653 8.77273 27.0692 8.77273C27.271 8.77273 27.4556 8.74432 27.6232 8.6875C27.7908 8.63068 27.9343 8.54545 28.0536 8.43182C28.1729 8.31818 28.2638 8.17898 28.3263 8.0142L30.0053 8.125C29.9201 8.52841 29.7454 8.88068 29.4812 9.18182C29.2198 9.48011 28.8817 9.71307 28.467 9.88068C28.055 10.0455 27.5792 10.1278 27.0394 10.1278ZM33.0437 6.21591V10H31.2283V3.45455H32.9585V4.60938H33.0352C33.18 4.22869 33.4229 3.92756 33.7638 3.70597C34.1048 3.48153 34.5181 3.36932 35.0039 3.36932C35.4585 3.36932 35.8548 3.46875 36.1928 3.66761C36.5309 3.86648 36.7937 4.15057 36.9812 4.51989C37.1687 4.88636 37.2624 5.32386 37.2624 5.83239V10H35.4471V6.15625C35.4499 5.75568 35.3477 5.44318 35.1403 5.21875C34.9329 4.99148 34.6474 4.87784 34.2837 4.87784C34.0394 4.87784 33.8235 4.9304 33.636 5.03551C33.4513 5.14062 33.3065 5.29403 33.2013 5.49574C33.0991 5.6946 33.0465 5.93466 33.0437 6.21591ZM44.0827 6.21591V10H42.2674V3.45455H43.9975V4.60938H44.0742C44.2191 4.22869 44.462 3.92756 44.8029 3.70597C45.1438 3.48153 45.5572 3.36932 46.043 3.36932C46.4975 3.36932 46.8938 3.46875 47.2319 3.66761C47.57 3.86648 47.8327 4.15057 48.0202 4.51989C48.2077 4.88636 48.3015 5.32386 48.3015 5.83239V10H46.4862V6.15625C46.489 5.75568 46.3867 5.44318 46.1793 5.21875C45.9719 4.99148 45.6864 4.87784 45.3228 4.87784C45.0785 4.87784 44.8626 4.9304 44.6751 5.03551C44.4904 5.14062 44.3455 5.29403 44.2404 5.49574C44.1381 5.6946 44.0856 5.93466 44.0827 6.21591ZM51.5476 1.27273V10H49.7322V1.27273H51.5476Z" fill="black"/>
<path d="M39.7543 10.1108C39.473 10.1108 39.2315 10.0114 39.0298 9.8125C38.831 9.6108 38.7315 9.36932 38.7315 9.08807C38.7315 8.80966 38.831 8.57102 39.0298 8.37216C39.2315 8.1733 39.473 8.07386 39.7543 8.07386C40.027 8.07386 40.2656 8.1733 40.4702 8.37216C40.6747 8.57102 40.777 8.80966 40.777 9.08807C40.777 9.27557 40.7287 9.44744 40.6321 9.60369C40.5384 9.7571 40.4148 9.88068 40.2614 9.97443C40.108 10.0653 39.9389 10.1108 39.7543 10.1108Z" fill="url(#paint0_linear_301_898)"/>
<defs>
<linearGradient id="paint0_linear_301_898" x1="26.5" y1="-2" x2="26.5" y2="13" gradientUnits="userSpaceOnUse">
<stop stop-color="#66BB6A"/>
<stop offset="0.5" stop-color="#2196F3"/>
<stop offset="1" stop-color="#9C27B0"/>
</linearGradient>
</defs>
</svg>
