<?xml version="1.0" encoding="UTF-8"?>
<!DOCTYPE svg PUBLIC "-//W3C//DTD SVG 1.1//EN" "http://www.w3.org/Graphics/SVG/1.1/DTD/svg11.dtd">
<svg version="1.1" xmlns="http://www.w3.org/2000/svg" xmlns:xlink="http://www.w3.org/1999/xlink" x="0" y="0" width="926" height="984" viewBox="0, 0, 926, 984">
  <defs>
    <clipPath id="Clip_1">
      <path d="M0.06,0.638 L925.646,0.638 L925.646,983.94 L0.06,983.94 z"/>
    </clipPath>
  </defs>
  <g id="Layer_1">
    <g clip-path="url(#Clip_1)">
      <path d="M505.039,978.785 C503.272,984.679 498.416,984.296 494.019,983.652 C489.912,983.049 488.964,979.512 488.609,975.76 C485.725,945.273 482.766,914.792 479.831,884.31 C479.742,883.381 479.669,882.451 479.504,880.554 C472.162,888.795 465.531,896.388 458.737,903.832 C447.506,916.136 436.073,928.248 423.258,938.955 C419.16,942.378 414.821,945.461 409.958,947.719 C404.838,950.096 399.871,950.169 394.679,947.441 C371.979,935.513 351.728,920.171 332.658,903.197 C303.47,877.218 277.281,848.412 252.952,817.887 C251.182,815.667 249.467,814.403 246.424,814.217 C199.948,811.376 158.478,772.909 152.066,726.863 C147.773,696.035 163.549,670.508 194.32,659.263 C198.858,657.604 199.414,656.121 198.023,651.694 C152.675,507.32 107.476,362.9 62.264,218.485 C59.426,209.42 61.407,202.188 67.92,197.52 C73.671,193.398 81.627,193.506 87.532,197.726 C90.948,200.168 92.702,203.588 94.008,207.489 C116.886,275.85 139.845,344.184 162.751,412.536 C190.455,495.207 218.124,577.89 245.817,660.565 C246.76,663.38 247.42,666.289 249.51,668.641 C255.644,675.54 258.722,683.568 257.983,692.929 C259.786,693.036 259.554,691.55 259.948,690.61 C262.274,685.059 264.97,679.774 269.345,675.458 C281.456,663.513 297.594,663.246 309.876,675.076 C320.889,685.684 326.081,699.26 328.71,713.924 C330.735,725.215 330.596,736.482 326.32,747.359 C325.659,749.04 325.92,750.109 327.139,751.324 C344.129,768.256 361.016,785.312 380.756,799.143 C391.04,806.348 391.198,806.281 398.5,796.089 C421.277,764.301 443.992,732.469 466.971,700.32 C460.177,697.604 453.68,695.285 447.413,692.456 C389.498,666.308 351.355,621.942 328.889,563.278 C322.154,545.692 317.374,527.538 314.809,508.871 C314.221,504.595 312.416,503.116 308.269,502.911 C301.114,502.558 294.104,501.101 287.239,498.97 C267.79,492.931 256.756,478.342 255.801,458.03 C254.772,436.171 263.327,419.906 283.155,410.184 C286.609,408.49 285.078,406.538 284.468,404.627 C277.703,383.462 273.56,361.809 271.624,339.673 C268.026,298.516 272.475,258.239 284.874,218.907 C299.908,171.218 322.851,127.791 356.744,90.705 C397.197,46.441 447.747,20.046 506.106,7.969 C545.078,-0.097 584.389,-0.859 623.915,2.558 C653.006,5.073 681.297,11.85 709.847,17.488 C756.249,26.65 797.719,45.544 833.683,76.26 C873.36,110.147 897.052,153.546 908.649,203.923 C917.511,242.419 918.444,281.396 915.091,320.598 C912.591,349.835 907.65,378.662 900.738,407.158 C900.043,410.022 900.596,411.459 903.251,413.048 C929.85,428.968 929.761,462.369 918.441,481.169 C911.425,492.821 899.965,498.05 887.224,500.746 C881.217,502.017 875.089,502.996 868.971,503.358 C864.721,503.61 864.075,505.535 863.713,509.156 C861.022,536.102 855.117,562.291 844.377,587.247 C825.923,630.132 794.883,661.184 754.083,683.026 C745.429,687.659 736.58,691.894 727.325,695.144 C723.693,696.419 724.127,697.562 725.995,700.171 C751.711,736.09 774.517,773.716 792.225,814.28 C802.841,838.599 811.336,863.581 814.276,890.117 C817.174,916.276 814.555,941.322 798.2,963.294 C794.707,967.986 790.696,972.19 786.211,975.953 C779.777,981.352 774.729,980.384 770.605,972.9 C768.34,968.572 770.631,965.346 773.622,962.843 C788.476,950.41 795.006,934.236 796.717,915.277 C798.448,896.106 794.622,877.833 789.502,859.695 C780.288,827.06 764.965,797.122 748.205,767.866 C738.181,750.367 727.372,733.357 715.657,716.929 C713.435,713.815 711.203,710.671 709.895,707.019 C708.942,704.357 707.229,703.326 704.471,704.253 C703.999,704.411 703.499,704.487 703.017,704.617 C686.28,709.136 690.419,705.265 683.798,720.653 C662.138,770.997 640.573,821.382 619.008,871.767 C615.993,878.811 612.92,885.83 609.934,892.887 C608.018,897.413 605.385,901.068 599.767,901.045 C594.155,901.021 591.458,897.357 589.64,892.814 C580.48,869.922 571.047,847.14 561.779,824.292 C547.375,788.785 532.706,753.386 518.485,717.805 C516.859,713.737 514.463,711.595 510.14,711.195 C503.328,710.565 496.603,709.25 489.984,707.594 C486.172,706.64 483.91,707.505 481.61,710.759 C462.478,737.832 443.406,764.948 424.022,791.841 C418.274,799.815 412.555,807.809 406.582,815.618 C401.105,822.779 395.017,824.772 386.344,822.143 C377.399,819.432 369.922,814.092 362.654,808.498 C346.78,796.281 332.605,782.193 318.534,768 C317.126,766.58 315.846,764.718 313.491,765.829 C310.37,767.302 306.965,768.448 306.268,772.676 C305.223,779.015 302.53,784.658 298.985,790.041 C293.237,798.767 285.786,805.385 276.438,809.978 C271.942,812.188 271.893,812.722 275.298,816.815 C283.922,827.186 292.752,837.388 301.843,847.345 C323.443,871 346.594,893.006 372.408,912.068 C380.582,918.104 389.128,923.595 398.017,928.573 C401.83,930.708 404.838,930.372 408.041,927.76 C416.433,920.916 424.804,914.034 432.121,906.023 C445.031,891.889 457.849,877.675 470.371,863.187 C474.602,858.292 476.489,853.5 474.911,847.279 C474.376,845.173 474.438,842.971 474.62,840.809 C475.076,835.385 479.246,830.957 484.003,830.775 C488.616,830.598 492.866,834.355 493.758,839.787 C494.944,847.014 495.331,854.34 496.027,861.625 C497.624,878.345 499.223,895.066 500.745,911.792 C502.192,927.691 503.739,943.582 505.239,959.475 C505.853,965.982 505.922,972.356 505.039,978.785" fill="#6E4100"/>
      <path d="M505.039,978.785 C504.356,956.47 501.21,934.364 499.344,912.149 C497.394,888.936 494.99,865.761 492.829,842.566 C492.627,840.393 492.552,838.175 491.412,836.296 C489.409,832.995 486.355,831.35 482.531,832.238 C478.356,833.208 475.795,836.033 475.883,840.432 C475.972,844.914 476.531,849.389 476.937,853.862 C477.108,855.744 476.903,857.349 475.556,858.92 C455.827,881.919 436.525,905.327 413.419,925.138 C403.589,933.566 403.4,933.444 392.174,926.752 C370.024,913.549 350.396,897.1 331.695,879.48 C310.45,859.463 291.07,837.729 272.38,815.339 C269.399,811.768 270.675,811.181 274.062,809.587 C290.702,801.761 301.948,789.335 305.167,770.766 C306.089,765.452 311.153,766.269 314.009,763.871 C316.164,762.061 317.327,765.246 318.546,766.462 C335.408,783.285 352.306,800.059 372.079,813.564 C376.897,816.854 381.934,819.768 387.65,821.285 C395.197,823.288 400.527,821.546 405.171,815.306 C431.121,780.446 455.957,744.787 480.915,709.219 C483.39,705.692 485.664,705.132 489.445,706.117 C496.853,708.045 504.402,709.421 512.035,710.039 C515.881,710.35 517.577,712.157 519.011,715.699 C542.846,774.561 566.863,833.349 590.814,892.164 C592.16,895.469 593.51,898.716 597.366,899.762 C602.269,901.092 605.802,899.062 608.22,893.434 C619.448,867.304 630.632,841.155 641.837,815.015 C656.779,780.163 671.759,745.327 686.603,710.432 C687.711,707.827 689.231,706.569 691.879,705.986 C696.747,704.915 701.576,703.657 706.382,702.331 C708.029,701.877 709.037,701.749 709.928,703.649 C718.092,721.065 730.737,735.659 740.513,752.09 C760.976,786.485 779.883,821.552 791.047,860.252 C796.519,879.219 800.121,898.432 797.886,918.341 C795.897,936.067 789.224,951.414 775.281,963.01 C772.044,965.702 770.424,968.779 770.604,972.899 C750.753,972.903 730.902,972.906 711.05,972.909 C708.589,968.813 710.257,964.457 710.645,960.35 C713.586,929.23 716.647,898.121 719.422,866.985 C720.131,859.035 721.118,851.109 721.659,843.142 C722.021,837.819 719.688,834.287 715.547,833.89 C711.632,833.514 709.042,836.142 708.051,841.502 C707.899,842.32 707.73,843.139 707.65,843.966 C706.83,852.407 706.082,860.855 705.281,869.297 C703.114,892.141 700.955,914.986 698.827,937.833 C697.964,947.102 696.892,956.352 696.23,965.64 C696.043,968.274 696.106,971.031 693.663,972.881 C633.637,972.901 573.611,972.977 513.585,972.83 C508.825,972.818 505.291,973.04 505.039,978.785" fill="#BFCCCE"/>
      <path d="M693.663,972.881 C695.032,959.986 696.505,947.1 697.751,934.193 C700.772,902.894 703.667,871.582 706.667,840.28 C707.167,835.058 710.86,831.718 715.449,832.01 C720.304,832.319 723.783,836.415 723.293,841.734 C720.671,870.228 717.943,898.713 715.271,927.203 C713.843,942.436 712.456,957.673 711.05,972.908 C710.907,974.058 710.788,975.211 710.616,976.355 C709.701,982.441 707.056,984.314 700.137,983.796 C696.063,983.491 693.942,980.667 693.788,975.356 C693.764,974.53 693.705,973.706 693.663,972.881" fill="#6E4100"/>
      <path d="M10.289,688.785 C28.26,690.906 46.605,693.071 64.949,695.237 C72.385,696.115 79.815,697.041 87.258,697.861 C93.491,698.547 97.259,702.136 96.819,707.136 C96.347,712.511 91.944,715.442 85.459,714.672 C60.178,711.67 34.897,708.661 9.616,705.652 C9.12,705.593 8.626,705.511 8.136,705.418 C2.572,704.358 -0.597,700.581 0.094,695.839 C0.772,691.182 4.447,688.536 10.289,688.785" fill="#FF7164"/>
    </g>
    <path d="M111.73,808.722 C111.425,811.971 109.435,814.503 105.782,815.872 C97.827,818.852 89.623,820.947 81.299,822.474 C70.012,824.544 58.922,827.269 48.053,830.959 C42.335,832.9 37.706,830.959 36.185,826.273 C34.629,821.483 37.129,817.121 42.611,815.076 C56.988,809.711 72.148,807.483 86.984,803.951 C91.329,802.916 95.56,801.411 99.858,800.17 C106.444,798.268 111.871,801.906 111.73,808.722" fill="#FF7164"/>
    <path d="M113.87,601.425 C113.664,609.137 106.787,612.509 100.309,608.786 C90.788,603.317 81.392,597.631 71.875,592.154 C65.677,588.586 59.342,585.258 53.102,581.761 C47.695,578.731 45.924,573.93 48.428,569.368 C50.634,565.348 55.627,564.152 60.701,566.815 C77.205,575.478 93.24,584.97 109.222,594.552 C112.138,596.301 113.785,598.838 113.87,601.425" fill="#FF7164"/>
    <path d="M844.842,522.911 C836.236,582.414 809.425,630.394 756.821,662.075 C718.962,684.876 677.726,695.079 633.759,696.111 C606.128,696.76 578.513,697.854 550.884,696.643 C517.136,695.163 483.917,690.871 452.833,676.481 C397.166,650.711 361.863,607.024 341.988,549.903 C339.484,542.705 336.954,535.477 335.861,527.868 C337.731,527.393 338.466,528.935 339.511,529.924 C353.311,542.989 369.792,547.246 388.306,544.706 C396.655,543.56 403.303,538.852 408.886,533.152 C423.975,517.747 430.283,501.545 418.883,478.798 C413.923,468.901 407.123,460.72 397.483,455.003 C396.319,454.313 392.708,453.687 395.936,450.942 C398.704,450.036 401.558,450.337 404.377,450.336 C452.028,450.317 499.682,450.003 547.328,450.483 C565.791,450.669 575.992,439.726 576.246,421.783 C576.331,415.786 576.12,409.784 576.33,403.791 C576.505,398.763 577.626,397.561 582.618,397.424 C591.277,397.187 599.945,397.216 608.606,397.407 C613.905,397.524 615.082,398.725 615.263,403.972 C615.503,410.966 615.103,417.974 615.412,424.962 C615.904,436.088 620.953,444.296 631.429,448.793 C634.409,450.072 637.536,450.324 640.727,450.324 C693.709,450.322 746.692,450.366 799.674,450.292 C814.867,450.27 825.133,440.013 825.201,424.887 C825.301,402.728 825.232,380.569 825.224,358.409 C825.224,357.076 825.244,355.739 825.067,354.416 C824.279,348.546 820.322,346.422 815.075,349.066 C813.89,349.663 812.85,350.541 811.548,350.932 C809.762,351.423 807.935,351.492 806.101,351.493 C747.535,351.514 688.969,351.499 630.408,351.513 C628.992,351.468 627.845,350.738 626.901,349.808 C622.149,345.129 615.865,349.404 615.451,355.035 C615.059,360.349 615.285,365.677 615.289,370.997 C615.299,385.157 615.718,384.363 601.938,384.347 C595.451,384.34 588.963,384.329 582.476,384.335 C578.335,384.339 576.379,382.47 576.357,378.306 C576.326,372.151 576.362,365.997 576.321,359.843 C576.306,357.68 576.344,355.507 575.693,353.411 C574.06,348.161 570.132,346.559 565.268,349.181 C563.953,349.891 562.728,350.774 561.221,351.087 C559.251,351.551 557.248,351.493 555.255,351.494 C499.027,351.504 442.798,351.509 386.57,351.493 C384.908,351.492 383.242,351.509 381.595,351.285 C377.971,350.269 374.663,348.784 372.891,345.13 C435.818,313.654 493.233,273.646 548.994,231.117 C605.161,188.278 658.932,142.573 710.76,94.591 C714.65,90.989 717.88,90.591 722.626,92.209 C761.073,105.316 787.366,131.805 805.643,167.159 C821.385,197.611 829.941,230.336 835.755,263.884 C842.931,305.293 845.451,347.138 847.222,389.044 C848.361,415.973 850.215,442.886 849.573,469.865 C849.431,475.847 848.938,481.821 848.606,487.799 C846.094,487.419 846,485.048 845.133,483.409 C842.184,477.828 839.387,472.276 835.119,467.405 C818.924,448.925 791.388,450.46 774.798,468.857 C766.181,478.413 760.938,489.352 760.986,502.67 C761.037,516.711 767.541,526.96 778.873,534.144 C789.654,540.979 801.841,542.718 814.43,541.225 C825.998,539.854 833.077,531.689 840.211,523.701 C840.985,522.834 841.552,521.786 842.39,520.973 C843.073,520.309 843.883,519.237 844.853,520.127 C845.586,520.8 845.382,521.976 844.842,522.911" fill="#FEF2DF"/>
    <path d="M562.722,17.798 C572.959,15.997 583.301,16.746 593.559,17.053 C604.656,17.386 615.727,18.755 626.796,19.815 C660.344,23.026 693.098,30.057 725.241,40.151 C733.332,42.691 741.942,42.675 750.081,45.912 C804.733,67.646 847.841,102.272 874.164,155.817 C887.513,182.97 894.627,211.895 897.961,241.903 C900.175,261.834 900.412,281.796 899.563,301.744 C898.501,326.674 895.244,351.4 890.345,375.883 C888.65,384.352 886.626,392.755 884.964,401.23 C884.401,404.1 883.552,405.174 880.344,404.439 C876.319,403.517 872.128,403.13 867.991,402.963 C865.335,402.856 864.714,401.905 864.597,399.407 C863.698,380.134 862.979,360.845 861.58,341.607 C858.102,293.785 852.649,246.242 837.622,200.392 C826.719,167.126 811.215,136.423 785.837,111.537 C771.257,97.239 754.384,86.487 735.4,79.024 C730.303,77.02 730.255,77.05 733.973,73.168 C737.002,70.003 738.438,66.419 736.269,62.323 C734.462,58.913 731.336,57.491 727.452,58.003 C725.185,58.302 723.527,59.692 721.943,61.205 C700.754,81.442 679.012,101.069 657.017,120.424 C619.393,153.533 580.824,185.494 541.066,216.008 C500.098,247.451 458.025,277.308 413.572,303.674 C378.295,324.597 342.031,343.472 302.633,355.624 C301.408,354.243 301.574,352.526 301.523,350.878 C300.775,326.982 302.924,303.295 307.026,279.787 C312.142,250.461 319.996,221.901 332.309,194.721 C346.27,163.9 363.769,135.235 385.826,109.502 C405.391,86.676 427.973,67.439 454.233,52.568 C483.137,36.198 513.992,25.686 546.762,20.515 C554.843,19.24 562.958,18.961 570.678,18.416 C568.371,17.421 565.317,20.255 562.722,17.798" fill="#BB9D8D"/>
    <path d="M372.891,345.13 C375.171,346.716 377.452,348.303 379.733,349.889 C382.682,352.152 382.389,355.442 382.396,358.579 C382.442,379.219 382.412,399.859 382.421,420.498 C382.422,422.495 382.338,424.499 382.601,426.484 C383.216,431.118 385.715,433.562 390.403,434.126 C392.224,434.345 394.06,434.273 395.891,434.273 C445.826,434.276 495.761,434.276 545.696,434.275 C546.695,434.275 547.694,434.285 548.692,434.258 C556.42,434.044 558.998,431.416 559.195,423.539 C559.241,421.709 559.213,419.877 559.214,418.046 C559.218,398.572 559.185,379.097 559.24,359.622 C559.25,356.163 558.9,352.526 562,349.912 C564.852,347.27 567.718,344.617 572.076,346.529 C576.771,348.588 577.706,352.636 577.683,357.214 C577.648,364.354 577.799,371.497 577.618,378.632 C577.538,381.793 578.435,383.063 581.801,382.995 C591.096,382.807 600.399,382.81 609.694,382.995 C613.004,383.061 613.998,381.911 613.916,378.693 C613.727,371.226 613.97,363.748 613.815,356.28 C613.719,351.597 615.404,348.104 619.812,346.425 C624.442,344.661 627.3,347.455 629.729,350.902 C631.878,353.076 631.348,355.874 631.355,358.473 C631.414,378.628 631.38,398.784 631.391,418.94 C631.392,421.436 631.276,423.947 631.835,426.406 C632.875,430.984 635.818,433.628 640.447,434.145 C642.271,434.349 644.108,434.274 645.94,434.274 C695.413,434.276 744.886,434.276 794.359,434.276 C795.192,434.276 796.025,434.281 796.858,434.268 C806.256,434.123 809.115,431.37 809.154,421.985 C809.242,400.664 809.146,379.342 809.217,358.02 C809.227,355.105 808.647,351.888 811.72,349.859 C814.382,346.672 817.598,344.918 821.771,346.505 C826.046,348.132 826.826,351.674 826.811,355.839 C826.729,379.327 826.797,402.815 826.762,426.304 C826.741,440.519 815.313,451.854 801.014,451.858 C747.374,451.874 693.734,451.872 640.094,451.859 C625.607,451.856 614.18,440.637 613.884,426.021 C613.733,418.528 613.726,411.026 613.916,403.535 C614,400.224 613.209,398.763 609.53,398.857 C600.374,399.09 591.204,399.085 582.047,398.858 C578.405,398.768 577.642,400.166 577.592,403.513 C577.461,412.312 578.407,421.135 576.894,429.915 C574.582,443.336 564.568,451.853 550.796,451.862 C498.823,451.898 446.849,451.924 394.876,451.955 C388.07,455.169 382.1,452.122 376.071,449.455 C367.142,443.597 363.125,435.38 363.232,424.657 C363.458,402.1 363.275,379.538 363.33,356.978 C363.337,354.074 362.735,350.87 365.834,348.871 C367.871,347.03 370.428,346.169 372.891,345.13" fill="#BEBEBE"/>
    <path d="M247.167,797.742 C220.631,795.506 197.844,782.094 181.683,757.628 C172.391,743.562 166.901,728.305 168.756,711.076 C169.483,704.329 171.565,697.979 175.728,692.662 C186.523,678.876 200.815,671.859 218.376,671.681 C222.452,671.64 226.247,672.838 229.872,674.609 C240.871,679.981 244.374,690.511 238.697,701.298 C237.696,703.199 236.386,704.938 235.231,706.759 C232.73,710.7 233.164,715.307 236.292,718.091 C239.633,721.066 244.276,720.886 248.021,717.625 C248.397,717.298 248.702,716.892 249.07,716.557 C257.335,709.044 264.2,709.941 269.702,719.644 C274.92,728.846 275.62,738.559 271.486,748.402 C267.66,757.512 269.786,761.586 279.556,763.426 C280.208,763.549 280.866,763.649 281.524,763.737 C289.402,764.792 290.278,766.396 287.124,774.012 C281.041,788.703 266.907,797.718 247.167,797.742" fill="#FEF8EA"/>
    <path d="M562.722,17.798 C565.857,17.798 568.992,17.798 572.127,17.798 C561.878,20.01 551.524,20.953 541.287,22.79 C485.037,32.887 436.238,57.382 397.027,99.202 C350.807,148.497 322.036,206.842 309.589,273.295 C304.488,300.528 301.933,327.926 302.633,355.624 C298.795,358.401 297.307,362.127 299.155,366.514 C300.856,370.552 304.42,372.056 308.62,371.135 C311.342,370.538 311.23,372.363 311.596,373.849 C313.824,382.886 312.693,392.064 312.614,401.191 C312.587,404.257 309.823,402.672 308.361,403.241 C303.309,405.204 301.303,402.976 299.822,398.014 C277.852,324.389 284.785,252.999 316.358,183.589 C333.046,146.9 354.847,113.672 384.879,86.331 C421.144,53.315 463.936,33.518 511.735,23.957 C528.566,20.59 545.568,18.54 562.722,17.798" fill="#FEFEFE"/>
    <path d="M377.058,448.829 C382.775,451.138 388.676,452.394 394.876,451.954 C410.002,459.927 419.338,472.604 424.189,488.691 C428.087,501.617 425.736,513.54 417.79,524.536 C409.64,535.816 399.937,545.344 385.536,546.519 C366.771,548.05 349.558,543.646 336.695,528.402 C336.492,528.161 336.142,528.044 335.861,527.868 C332.011,514.792 330.27,501.355 329.016,487.835 C335.726,466.82 349.368,453.258 371.255,448.581 C373.195,448.167 375.173,447.613 377.058,448.829" fill="#FFD5BA"/>
    <path d="M844.842,522.911 C844.721,522.265 844.806,521.239 844.443,521.044 C843.37,520.466 843.268,521.787 842.92,522.285 C839.07,527.79 834.352,532.557 829.092,536.568 C818.553,544.604 806.316,544.149 794.255,541.639 C781.634,539.012 771.024,532.852 764.397,521.135 C757.322,508.625 758.107,495.775 763.727,483.31 C771.111,466.936 783.319,455.547 801.718,453.203 C817.91,451.14 832.35,458.321 842.225,474.887 C844.676,478.998 846.496,483.485 848.606,487.798 C848.215,499.595 847.107,511.315 844.842,522.911" fill="#FFD5BA"/>
    <path d="M377.058,448.829 C354.302,451.529 339.422,464.268 330.935,485.095 C330.482,486.206 330.14,487.256 329.016,487.835 C326.589,465.756 328.179,443.655 328.757,421.567 C329.222,403.794 330.124,386.032 330.585,368.258 C330.677,364.712 331.902,363.147 335.174,361.85 C345.489,357.763 355.627,353.231 365.834,348.871 C364.653,351.003 364.76,353.331 364.762,355.656 C364.772,377.382 365.192,399.121 364.597,420.832 C364.276,432.549 367.36,441.957 377.058,448.829" fill="#FEF2DF"/>
    <path d="M865.605,453.347 C865.605,443.363 865.671,433.378 865.561,423.395 C865.533,420.799 865.871,419.491 869.033,419.775 C877.24,420.512 885.186,422.148 892.434,426.135 C908.375,434.904 913.914,456.532 904.334,472.047 C900.191,478.757 893.605,481.891 886.374,483.662 C880.74,485.042 874.908,485.599 869.196,486.69 C866.12,487.278 865.678,485.946 865.715,483.263 C865.851,473.293 865.769,463.321 865.769,453.349 C865.715,453.348 865.66,453.348 865.605,453.347" fill="#FEF8EA"/>
    <path d="M312.025,486.545 C302.676,485.517 294.125,484.447 286.245,480.453 C279.582,477.076 275.526,471.727 273.801,464.534 C268.417,442.075 279.279,425.866 302.934,421.039 C312.027,419.184 312.09,419.186 311.822,428.307 C311.255,447.558 310.094,466.803 312.025,486.545" fill="#FEF8EA"/>
    <path d="M107.748,301.918 C117.059,329.472 126.429,357.007 135.671,384.584 C165.268,472.901 194.818,561.233 224.388,649.56 C224.756,650.661 225.137,651.758 225.515,652.856 C226.127,654.635 226.127,655.303 223.633,655.318 C218.28,655.349 215.867,653.428 214.168,647.961 C178.726,533.948 143.009,420.021 107.356,306.074 C107.059,305.128 106.9,304.138 106.677,303.169 C106.268,302.095 106.743,301.779 107.748,301.918" fill="#FEFEFE"/>
    <path d="M599.945,869.91 C594.621,856.806 589.524,845.094 585.174,833.112 C583.599,828.773 585.635,823.898 586.003,819.278 C587.087,805.69 588.606,792.137 589.779,778.556 C590.02,775.769 591.004,774.592 593.77,775.016 C594.754,775.167 595.741,775.334 596.733,775.403 C606.381,776.077 606.273,776.077 606.774,785.964 C607.64,803.064 608.593,820.16 609.64,837.25 C610,843.132 609.709,848.725 606.849,854.136 C604.377,858.814 602.565,863.842 599.945,869.91" fill="#94D1CC"/>
    <path d="M313.02,725.605 C313.05,734.066 312.137,741.266 307.145,747.224 C303.385,751.713 293.736,751.898 290.153,747.65 C289.305,746.644 289.946,745.409 290.103,744.295 C292.417,727.855 288.73,713.339 276.415,701.603 C275.414,700.648 274.375,699.832 275.031,698.262 C276.755,694.13 278.334,689.89 281.786,686.796 C287.658,681.534 293.817,682.068 299.54,688.451 C306.153,695.827 309.623,704.751 311.717,714.269 C312.609,718.326 313.19,722.447 313.02,725.605" fill="#FEF8EA"/>
    <path d="M603.385,758.874 C597.591,758.571 591.796,758.284 586.004,757.948 C585.206,757.901 584.255,757.833 583.664,757.389 C582.149,756.251 581.848,743.119 583.344,741.807 C588.333,737.432 593.434,733.186 598.435,728.824 C599.835,727.602 600.971,727.571 602.259,728.907 C603.294,729.98 604.3,731.174 605.551,731.931 C614.473,737.326 616.787,745.131 614.836,755.029 C614.231,758.094 613.682,759.503 610.347,759.041 C608.068,758.725 605.71,758.98 603.388,758.98 C603.387,758.945 603.386,758.909 603.385,758.874" fill="#94D1CC"/>
    <path d="M639.405,740.022 C629.928,731.37 620.673,722.922 610.802,713.911 C628.602,712.644 645.517,712.403 663.429,712.867 C655.011,722.382 647.26,731.143 639.405,740.022" fill="#FEFEFE"/>
    <path d="M588.757,714.956 C579.98,722.462 571.169,729.928 562.459,737.511 C560.884,738.882 560.212,737.962 559.305,736.943 C552.377,729.16 545.445,721.381 537.694,712.68 C555.237,713.824 571.716,714.163 588.757,714.956" fill="#FEFDFD"/>
    <path d="M648.196,757.456 C640.688,774.984 633.179,792.512 625.67,810.039 C625.414,809.998 625.157,809.958 624.901,809.917 C624.262,799.607 623.628,789.296 622.979,778.987 C622.887,777.536 623.148,776.46 624.777,775.918 C629.506,774.343 630.613,770.51 630.759,766.07 C630.861,762.958 630.702,759.8 631.729,756.494 C634.554,757.856 636.478,760.423 639.759,760.373 C642.82,760.327 645.142,759.015 648.196,757.456" fill="#FEFDFD"/>
    <path d="M566.317,756.195 C566.623,760.066 566.76,762.703 567.06,765.32 C567.326,767.638 567.456,770.521 569.588,771.579 C573.943,773.738 573.205,777.155 572.824,780.743 C572.252,786.134 571.786,791.537 570.329,797.116 C564.979,784.08 559.63,771.044 554.186,757.779 C558.049,758.407 561.997,760.204 566.317,756.195" fill="#FDFDFD"/>
    <path d="M107.748,301.918 C107.391,302.335 107.034,302.752 106.677,303.168 C104.544,298.581 103.359,293.687 102.051,288.833 C102.311,288.437 102.354,287.864 102.945,287.737 C105.088,292.281 106.54,297.058 107.748,301.918" fill="#EAE5DF"/>
    <path d="M100.665,284.126 C99.538,282.654 99.186,281.002 99.253,278.751 C101.392,279.811 101.036,281.657 101.609,282.993 C101.377,283.44 101.338,284.047 100.665,284.126" fill="#DBD3C8"/>
    <path d="M100.665,284.126 C100.979,283.749 101.294,283.371 101.609,282.993 C102.054,284.575 102.499,286.156 102.945,287.737 C102.647,288.103 102.349,288.468 102.051,288.833 C101.589,287.264 101.127,285.695 100.665,284.126" fill="#F9F7F6"/>
    <path d="M811.72,349.859 C810.666,352.041 810.768,354.378 810.768,356.711 C810.777,379.027 810.781,401.344 810.77,423.661 C810.766,432.207 807.165,435.861 798.722,435.862 C746.594,435.87 694.465,435.869 642.337,435.864 C633.76,435.863 629.919,432.03 629.892,423.345 C629.816,399.197 629.781,375.05 629.73,350.902 C631.357,349.141 633.49,349.891 635.395,349.889 C694.17,349.85 752.945,349.858 811.72,349.859" fill="#FEFEFE"/>
    <path d="M562,349.912 C561.127,353.153 560.958,356.447 560.966,359.798 C561.018,381.286 561.01,402.775 560.983,424.263 C560.973,432.464 557.607,435.86 549.544,435.861 C497.072,435.871 444.6,435.872 392.127,435.86 C384.065,435.859 380.754,432.456 380.749,424.215 C380.737,402.06 380.725,379.905 380.771,357.75 C380.777,355.061 380.597,352.442 379.734,349.889 C440.489,349.897 501.245,349.905 562,349.912" fill="#FEFEFE"/>
    <path d="M597.819,644.381 C576.478,643.385 556.823,633.243 543.597,611.793 C540.202,606.287 540.925,601.382 545.256,598.689 C549.82,595.851 554.58,597.541 557.966,603.2 C569.144,621.885 592.44,631.604 612.485,625.889 C625.155,622.277 633.011,613.534 637.861,601.71 C639.575,597.531 642.391,595.249 647.063,595.69 C651.078,596.069 653.223,598.459 654.34,602.164 C654.979,604.286 654.249,606.147 653.572,607.982 C645.471,629.935 624.802,644.292 597.819,644.381" fill="#6E4100"/>
    <path d="M705.876,182.659 C712.025,182.705 719.209,185.336 725.209,190.873 C728.618,194.019 730.84,197.884 730.914,202.65 C730.981,206.993 728.945,209.982 724.603,210.998 C720.326,212 716.606,210.533 715.189,206.499 C713.089,200.519 708.33,199.727 703.322,199.346 C700.216,199.109 697.757,200.468 696.126,203.618 C693.547,208.597 688.842,209.987 684.464,207.609 C680.47,205.44 679.184,200.703 681.269,195.848 C684.913,187.367 693.474,182.356 705.876,182.659" fill="#6E4100"/>
    <path d="M584.271,428.446 C584.229,423.062 587.054,419.484 591.75,418.977 C596.368,418.479 599.955,421.385 600.808,426.763 C601.116,428.71 602.258,430.049 603.033,431.659 C604.9,435.54 603.895,439.955 600.603,442.331 C597.277,444.733 592.855,444.348 589.702,441.383 C586.431,438.307 584.31,433.253 584.271,428.446" fill="#6E4100"/>
    <path d="M589.951,58.998 C590.051,62.958 588.131,65.319 584.802,66.94 C551.915,82.956 521.14,102.426 491.849,124.256 C432.233,168.687 381.344,221.208 343.18,285.434 C339.271,292.013 335.681,298.784 332.017,305.506 C329.034,310.977 324.407,312.846 319.765,310.323 C315.568,308.042 314.356,302.853 317.09,297.64 C327.853,277.117 340.117,257.517 353.649,238.707 C371.388,214.051 391.124,191.056 412.774,169.809 C460.745,122.73 514.439,83.468 574.517,53.107 C577.847,51.424 581.242,49.789 584.975,51.313 C588.336,52.686 590.224,55.326 589.951,58.998" fill="#6E4100"/>
    <path d="M579.81,18.123 C581.15,18.123 582.49,18.123 584.275,18.123 C582.602,19.288 581.272,18.927 579.81,18.123" fill="#CEB9AC"/>
    <path d="M710.945,389.088 C710.904,394.448 710.154,399.647 707.831,404.566 C704.851,410.88 700.009,414.197 692.975,414.403 C686.056,414.606 680.997,411.453 678.096,405.465 C672.779,394.491 672.932,383.373 678.53,372.455 C680.58,368.458 683.956,365.798 687.902,363.846 C694.917,360.377 700.84,361.862 705.271,368.285 C709.581,374.535 710.817,381.673 710.945,389.088" fill="#6E4100"/>
    <path d="M510.457,388.566 C510.261,395.073 509.535,400.122 507.194,404.845 C504.2,410.885 499.488,414.16 492.656,414.406 C485.986,414.647 481.22,411.677 477.874,406.097 C470.335,393.523 473.54,373.176 484.231,365.732 C493.436,359.323 501.833,361.468 506.727,371.53 C509.543,377.321 510.346,383.543 510.457,388.566" fill="#6E4100"/>
  </g>
</svg>
